<svg xmlns="http://www.w3.org/2000/svg" xmlns:xlink="http://www.w3.org/1999/xlink" viewBox="0 0 1080.62 1080.62">
  <defs fill="#bf2626">
    <style>
      .cls-1 {
        clip-path: url(#clippath-2);
      }

      .cls-2, .cls-3, .cls-4 {
        stroke: #1a4b4f;
        stroke-miterlimit: 10;
      }

      .cls-2, .cls-5 {
        fill: #1a4b4f;
      }

      .cls-3 {
        stroke-width: 40px;
      }

      .cls-3, .cls-6, .cls-4 {
        fill: none;
      }

      .cls-7 {
        clip-path: url(#clippath-1);
      }

      .cls-8 {
        clip-path: url(#clippath);
      }

      .cls-4 {
        stroke-width: 12px;
      }

      .cls-9 {
        clip-path: url(#clippath-3);
      }
    </style>
    <clipPath id="clippath" fill="#bf2626">
      <rect class="cls-6" x="792.71" y="493.64" width="64.73" height="61.72" fill="#bf2626"/>
    </clipPath>
    <clipPath id="clippath-1" fill="#bf2626">
      <rect class="cls-6" x="237.03" y="493.64" width="64.73" height="61.72" fill="#bf2626"/>
    </clipPath>
    <clipPath id="clippath-2" fill="#bf2626">
      <rect class="cls-6" x="546.49" y="251.92" width="388.31" height="764.54" fill="#bf2626"/>
    </clipPath>
    <clipPath id="clippath-3" fill="#bf2626">
      <rect class="cls-6" x="160.18" y="251.92" width="388.31" height="764.54" fill="#bf2626"/>
    </clipPath>
  </defs>
  <g id="Layer_3" data-name="Layer 3">
    <g>
      <g id="_Mirror_Repeat_" data-name="&amp;lt;Mirror Repeat&amp;gt;">
        <g class="cls-8">
          <path class="cls-5" d="m793.6,524.13s-6.69,21.33,16.51,29.49c23.2,8.15,51.37-13.52,46.84-36.57-3.71-18.84-19.07-27.72-33.5-21.35-14.44,6.38-14.86,16.65-14.01,24.5s13.23,19.6,21.15,17.64c0,0-21.18,20.82-36.99-13.7Z" fill="#bf2626"/>
        </g>
      </g>
      <g id="_Mirror_Repeat_-2" data-name="&amp;lt;Mirror Repeat&amp;gt;">
        <g class="cls-7">
          <path class="cls-5" d="m300.86,524.13s6.69,21.33-16.51,29.49c-23.2,8.15-51.37-13.52-46.84-36.57,3.71-18.84,19.07-27.72,33.5-21.35,14.44,6.38,14.86,16.65,14.01,24.5s-13.23,19.6-21.15,17.64c0,0,21.18,20.82,36.99-13.7Z" fill="#bf2626"/>
        </g>
      </g>
    </g>
    <circle class="cls-4" cx="547.99" cy="478.59" r="151.79" fill="#bf2626"/>
  </g>
  <g id="Layer_1" data-name="Layer 1">
    <circle class="cls-3" cx="540.31" cy="540.31" r="520.31" fill="#bf2626"/>
    <g>
      <g id="_Mirror_Repeat_-3" data-name="&amp;lt;Mirror Repeat&amp;gt;">
        <g class="cls-1">
          <path class="cls-2" d="m933.49,251.93c3.5,2.87-38.39,91.15-128.46,159.02-74.8,56.37-117.63,46.63-168.35,106.19-47.82,56.16-58.97,122.63-67.34,172.49-9.53,56.77-9.83,112.4-1.04,172.49,3.14,21.49,15.42,44.59,11.4,77.7-3.98,32.7-19.15,58.06-31.6,74.59v-464.12c10.35-25.24,29.35-60.98,65.27-89.09,25.52-19.97,40.56-21.2,93.76-45.58,25.63-11.75,76.82-35.21,123.28-67.86,69-48.48,100.33-98.08,103.08-95.83Z" fill="#bf2626"/>
          <path class="cls-2" d="m771.72,496.07s-48.35,43.86,6.56,77.7c54.91,33.84,102.56-28.66,116.03-59.05s14.85-51.8,14.85-51.8c0,0-46.27,17.96-92.89,0,0,0,86.68-39.37,118.1-130.53,0,0-16.58,89.44-43.51,111.54,0,0,19.68,7.6,44.55-17.27,0,0-1.38,119.14-80.81,162.65,0,0,20.03,1.04,33.5,0,0,0-29.01,103.25-197.53,88.4,0,0,102.91-3.11,132.95-61.12,0,0-78.73-16.58-85.29-62.85s33.5-57.67,33.5-57.67Z" fill="#bf2626"/>
          <path class="cls-2" d="m621.16,661.14s-8.81,142.45,132.6,156.43c0,0-18.65,65.27-125.87,35.74,0,0-7.77,58.01,30.56,75.63,0,0-47.14-.52-53.87-117.06,0,0,51.8,51.28,118.1,22.79,0,0-107.74-35.22-101.53-173.53Z" fill="#bf2626"/>
        </g>
      </g>
      <g id="_Mirror_Repeat_-4" data-name="&amp;lt;Mirror Repeat&amp;gt;">
        <g class="cls-9">
          <path class="cls-2" d="m162.29,251.91c-3.5,2.87,38.39,91.15,128.46,159.02,74.8,56.37,117.63,46.63,168.35,106.19,47.82,56.16,58.97,122.63,67.34,172.49,9.53,56.77,9.83,112.4,1.04,172.49-3.14,21.49-15.42,44.59-11.4,77.7,3.98,32.7,19.15,58.06,31.6,74.59v-464.12c-10.35-25.24-29.35-60.98-65.27-89.09-25.52-19.97-40.56-21.2-93.76-45.58-25.63-11.75-76.82-35.21-123.28-67.86-69-48.48-100.33-98.08-103.08-95.83Z" fill="#bf2626"/>
          <path class="cls-2" d="m324.06,496.06s48.35,43.86-6.56,77.7c-54.91,33.84-102.56-28.66-116.03-59.05s-14.85-51.8-14.85-51.8c0,0,46.27,17.96,92.89,0,0,0-86.68-39.37-118.1-130.53,0,0,16.58,89.44,43.51,111.54,0,0-19.68,7.6-44.55-17.27,0,0,1.38,119.14,80.81,162.65,0,0-20.03,1.04-33.5,0,0,0,29.01,103.25,197.53,88.4,0,0-102.91-3.11-132.95-61.12,0,0,78.73-16.58,85.29-62.85s-33.5-57.67-33.5-57.67Z" fill="#bf2626"/>
          <path class="cls-2" d="m474.62,661.12s8.81,142.45-132.6,156.43c0,0,18.65,65.27,125.87,35.74,0,0,7.77,58.01-30.56,75.63,0,0,47.14-.52,53.87-117.06,0,0-51.8,51.28-118.1,22.79,0,0,107.74-35.22,101.53-173.53Z" fill="#bf2626"/>
        </g>
      </g>
    </g>
  </g>
</svg>